<?xml version="1.0" encoding="utf-8"?>
<!-- Svg Vector Icons : http://www.onlinewebfonts.com/icon -->
<!DOCTYPE svg PUBLIC "-//W3C//DTD SVG 1.1//EN" "http://www.w3.org/Graphics/SVG/1.1/DTD/svg11.dtd">
<svg version="1.1" xmlns="http://www.w3.org/2000/svg" xmlns:xlink="http://www.w3.org/1999/xlink" x="0px" y="0px" viewBox="0 0 1000 1000" enable-background="new 0 0 1000 1000" xml:space="preserve">
<metadata> Svg Vector Icons : http://www.onlinewebfonts.com/icon </metadata>
<g><path d="M861.1,783.7H454.9L164.7,990V783.7h-25.8c-57,0-103.2-46.2-103.2-103.2V113.2C35.8,56.2,82,10,138.9,10h722.1c57,0,103.2,46.2,103.2,103.2v567.4C964.2,737.5,918,783.7,861.1,783.7z M242.1,706.3v128.9l180.5-128.9h25.8h103.2h232.1c57,0,103.2-46.2,103.2-103.2V190.5c0-57-46.2-103.2-103.2-103.2H216.3c-57,0-103.2,46.2-103.2,103.2v412.6c0,38.1,27.3,85.2,51.6,88.8"/><path d="M255,216.3h490c7.1,0,12.9,5.8,12.9,12.9V255c0,7.1-5.8,12.9-12.9,12.9H255c-7.1,0-12.9-5.8-12.9-12.9v-25.8C242.1,222.1,247.9,216.3,255,216.3z"/><path d="M255,371h490c7.1,0,12.9,5.8,12.9,12.9v25.8c0,7.1-5.8,12.9-12.9,12.9H255c-7.1,0-12.9-5.8-12.9-12.9v-25.8C242.1,376.8,247.9,371,255,371z"/><path d="M255,525.8h490c7.1,0,12.9,5.8,12.9,12.9v25.8c0,7.1-5.8,12.9-12.9,12.9H255c-7.1,0-12.9-5.8-12.9-12.9v-25.8C242.1,531.6,247.9,525.8,255,525.8z"/></g>
</svg>